<svg xmlns="http://www.w3.org/2000/svg" viewBox="0 0 1200 760" fill="none">
  <rect width="1200" height="760" rx="36" fill="#0E171D"/>
  <rect x="28" y="28" width="1144" height="704" rx="28" fill="#132229" stroke="rgba(243,234,215,0.14)"/>
  <rect x="60" y="60" width="1080" height="56" rx="16" fill="#101820"/>
  <circle cx="98" cy="88" r="8" fill="#BD5F3B"/>
  <circle cx="126" cy="88" r="8" fill="#D8B45F"/>
  <circle cx="154" cy="88" r="8" fill="#70B982"/>
  <rect x="196" y="74" width="116" height="28" rx="14" fill="rgba(216,180,95,0.14)"/>
  <rect x="330" y="78" width="72" height="20" rx="10" fill="rgba(243,234,215,0.12)"/>
  <rect x="416" y="78" width="72" height="20" rx="10" fill="rgba(243,234,215,0.12)"/>
  <rect x="502" y="78" width="72" height="20" rx="10" fill="rgba(243,234,215,0.12)"/>
  <rect x="588" y="78" width="96" height="20" rx="10" fill="rgba(243,234,215,0.12)"/>
  <rect x="912" y="74" width="170" height="28" rx="14" fill="rgba(119,183,216,0.14)"/>

  <rect x="60" y="150" width="516" height="230" rx="28" fill="url(#hero)" stroke="rgba(243,234,215,0.12)"/>
  <text x="96" y="196" fill="#D8B45F" font-family="monospace" font-size="18" letter-spacing="4">KNOWLEDGE SYSTEMS · AI TOOLS</text>
  <text x="96" y="254" fill="#F3EAD7" font-family="Georgia, serif" font-size="54" font-weight="700">
    <tspan x="96" dy="0">Offline-first</tspan>
    <tspan x="96" dy="64">software with proof.</tspan>
  </text>
  <rect x="96" y="320" width="192" height="42" rx="21" fill="#D8B45F"/>
  <rect x="304" y="320" width="172" height="42" rx="21" fill="rgba(243,234,215,0.09)" stroke="rgba(243,234,215,0.12)"/>

  <rect x="602" y="150" width="538" height="230" rx="28" fill="#101920" stroke="rgba(243,234,215,0.12)"/>
  <rect x="634" y="184" width="112" height="24" rx="12" fill="rgba(216,180,95,0.16)"/>
  <rect x="634" y="228" width="210" height="18" rx="9" fill="#F3EAD7"/>
  <rect x="634" y="258" width="246" height="14" rx="7" fill="rgba(243,234,215,0.2)"/>
  <rect x="634" y="288" width="264" height="14" rx="7" fill="rgba(243,234,215,0.12)"/>
  <rect x="634" y="326" width="220" height="18" rx="9" fill="rgba(119,183,216,0.18)"/>
  <rect x="876" y="326" width="196" height="18" rx="9" fill="rgba(112,185,130,0.18)"/>
  <rect x="910" y="194" width="180" height="136" rx="22" fill="rgba(216,180,95,0.08)" stroke="rgba(216,180,95,0.2)"/>
  <rect x="942" y="226" width="116" height="20" rx="10" fill="rgba(243,234,215,0.15)"/>
  <rect x="942" y="262" width="84" height="56" rx="16" fill="rgba(119,183,216,0.18)"/>
  <rect x="1034" y="262" width="24" height="56" rx="12" fill="rgba(216,180,95,0.28)"/>

  <rect x="60" y="410" width="348" height="272" rx="24" fill="#132128" stroke="rgba(243,234,215,0.12)"/>
  <rect x="92" y="444" width="102" height="22" rx="11" fill="rgba(216,180,95,0.16)"/>
  <rect x="92" y="484" width="186" height="20" rx="10" fill="#F3EAD7"/>
  <rect x="92" y="522" width="284" height="12" rx="6" fill="rgba(243,234,215,0.16)"/>
  <rect x="92" y="548" width="268" height="12" rx="6" fill="rgba(243,234,215,0.11)"/>
  <rect x="92" y="590" width="122" height="18" rx="9" fill="rgba(112,185,130,0.2)"/>
  <rect x="224" y="590" width="132" height="18" rx="9" fill="rgba(119,183,216,0.2)"/>

  <rect x="426" y="410" width="348" height="272" rx="24" fill="#132128" stroke="rgba(243,234,215,0.12)"/>
  <rect x="458" y="444" width="118" height="22" rx="11" fill="rgba(119,183,216,0.16)"/>
  <rect x="458" y="484" width="172" height="20" rx="10" fill="#F3EAD7"/>
  <rect x="458" y="522" width="280" height="12" rx="6" fill="rgba(243,234,215,0.16)"/>
  <rect x="458" y="548" width="244" height="12" rx="6" fill="rgba(243,234,215,0.11)"/>
  <rect x="458" y="590" width="130" height="18" rx="9" fill="rgba(216,180,95,0.2)"/>
  <rect x="598" y="590" width="120" height="18" rx="9" fill="rgba(243,234,215,0.12)"/>

  <rect x="792" y="410" width="348" height="272" rx="24" fill="#132128" stroke="rgba(243,234,215,0.12)"/>
  <rect x="824" y="444" width="124" height="22" rx="11" fill="rgba(112,185,130,0.16)"/>
  <rect x="824" y="484" width="190" height="20" rx="10" fill="#F3EAD7"/>
  <rect x="824" y="522" width="274" height="12" rx="6" fill="rgba(243,234,215,0.16)"/>
  <rect x="824" y="548" width="252" height="12" rx="6" fill="rgba(243,234,215,0.11)"/>
  <rect x="824" y="590" width="138" height="18" rx="9" fill="rgba(119,183,216,0.2)"/>
  <rect x="972" y="590" width="108" height="18" rx="9" fill="rgba(216,180,95,0.2)"/>

  <defs>
    <linearGradient id="hero" x1="60" y1="150" x2="576" y2="380" gradientUnits="userSpaceOnUse">
      <stop stop-color="#1A2C34"/>
      <stop offset="1" stop-color="#101820"/>
    </linearGradient>
  </defs>
</svg>
